# Tiled2Unity generated file. Do not modify by hand.
# Wavefront file for 'zelda-arena_test1-map_mesh_0004.obj'

# Vertices (Count = 20)
v -16 -16 0
v -32 -16 0
v -32 0 0
v -16 0 0
v -32 -16 0
v -48 -16 0
v -48 0 0
v -32 0 0
v -48 -16 0
v -64 -16 0
v -64 0 0
v -48 0 0
v -128 -16 0
v -144 -16 0
v -144 0 0
v -128 0 0
v -16 -96 0
v -32 -96 0
v -32 -80 0
v -16 -80 0

# Texture cooridinates (Count = 12)
vt 0 0.1428571
vt 0.1 0.1428571
vt 0.1 0.2857143
vt 0 0.2857143
vt 0.2 0.1428571
vt 0.3 0.1428571
vt 0.3 0.2857143
vt 0.2 0.2857143
vt 0.4 0.2857143
vt 0.5 0.2857143
vt 0.5 0.4285714
vt 0.4 0.4285714

# Normal
vn 0 0 -1

# Mesh description
g zelda-arena_test1-map_mesh_0004

# Faces
f 1/1/1 2/2/1 3/3/1 4/4/1
f 5/5/1 6/6/1 7/7/1 8/8/1
f 9/5/1 10/6/1 11/7/1 12/8/1
f 13/9/1 14/10/1 15/11/1 16/12/1
f 17/1/1 18/2/1 19/3/1 20/4/1

