# Tiled2Unity generated file. Do not modify by hand.
# Wavefront file for 'zelda-arena_test1-map_mesh_0005.obj'

# Vertices (Count = 32)
v -96 -16 0
v -112 -16 0
v -112 0 0
v -96 0 0
v -128 -64 0
v -144 -64 0
v -144 -48 0
v -128 -48 0
v -128 -80 0
v -144 -80 0
v -144 -64 0
v -128 -64 0
v -48 -96 0
v -64 -96 0
v -64 -80 0
v -48 -80 0
v -80 -96 0
v -96 -96 0
v -96 -80 0
v -80 -80 0
v -128 -128 0
v -144 -128 0
v -144 -112 0
v -128 -112 0
v -112 -144 0
v -128 -144 0
v -128 -128 0
v -112 -128 0
v -128 -144 0
v -144 -144 0
v -144 -128 0
v -128 -128 0

# Texture cooridinates (Count = 18)
vt 0.7 0.2857143
vt 0.8 0.2857143
vt 0.8 0.4285714
vt 0.7 0.4285714
vt 0.3 0.5714285
vt 0.4 0.5714285
vt 0.4 0.7142857
vt 0.3 0.7142857
vt 0.3 0.4285714
vt 0.4 0.4285714
vt 0.7 0.8571429
vt 0.8 0.8571429
vt 0.8 1
vt 0.7 1
vt 0.8 0.5714285
vt 0.7 0.5714285
vt 0.2 0.4285714
vt 0.2 0.5714285

# Normal
vn 0 0 -1

# Mesh description
g zelda-arena_test1-map_mesh_0005

# Faces
f 1/1/1 2/2/1 3/3/1 4/4/1
f 5/5/1 6/6/1 7/7/1 8/8/1
f 9/9/1 10/10/1 11/6/1 12/5/1
f 13/11/1 14/12/1 15/13/1 16/14/1
f 17/4/1 18/3/1 19/15/1 20/16/1
f 21/17/1 22/9/1 23/5/1 24/18/1
f 25/17/1 26/9/1 27/5/1 28/18/1
f 29/17/1 30/9/1 31/5/1 32/18/1

